<svg width="494" height="208" viewBox="0 0 494 208" fill="none" xmlns="http://www.w3.org/2000/svg">
<rect x="257" width="237" height="208" rx="22" fill="#2463EB"/>
<path d="M6.36364 156V86.1818H31.4545V156H6.36364ZM18.9091 78.9091C15.5152 78.9091 12.6061 77.7879 10.1818 75.5455C7.75758 73.303 6.54545 70.6061 6.54545 67.4545C6.54545 64.303 7.75758 61.6061 10.1818 59.3636C12.6061 57.1212 15.5152 56 18.9091 56C22.3333 56 25.2424 57.1212 27.6364 59.3636C30.0606 61.6061 31.2727 64.303 31.2727 67.4545C31.2727 70.6061 30.0606 73.303 27.6364 75.5455C25.2424 77.7879 22.3333 78.9091 18.9091 78.9091ZM108.057 108.909H84.9659C84.8447 107.485 84.3447 106.258 83.4659 105.227C82.5871 104.197 81.4508 103.409 80.0568 102.864C78.6932 102.288 77.178 102 75.5114 102C73.3598 102 71.5114 102.394 69.9659 103.182C68.4205 103.97 67.6629 105.091 67.6932 106.545C67.6629 107.576 68.1023 108.53 69.0114 109.409C69.9508 110.288 71.7538 110.97 74.4205 111.455L88.6023 114C95.7538 115.303 101.072 117.5 104.557 120.591C108.072 123.652 109.845 127.758 109.875 132.909C109.845 137.879 108.36 142.197 105.42 145.864C102.511 149.5 98.5265 152.318 93.4659 154.318C88.4356 156.288 82.6932 157.273 76.2386 157.273C65.572 157.273 57.2235 155.091 51.1932 150.727C45.1932 146.364 41.8447 140.606 41.1477 133.455H66.0568C66.3902 135.667 67.4811 137.379 69.3295 138.591C71.2083 139.773 73.572 140.364 76.4205 140.364C78.7235 140.364 80.6174 139.97 82.1023 139.182C83.6174 138.394 84.3902 137.273 84.4205 135.818C84.3902 134.485 83.7235 133.424 82.4205 132.636C81.1477 131.848 79.1477 131.212 76.4205 130.727L64.0568 128.545C56.9356 127.303 51.6023 124.939 48.0568 121.455C44.5114 117.97 42.7538 113.485 42.7841 108C42.7538 103.152 44.0265 99.0455 46.6023 95.6818C49.2083 92.2879 52.9205 89.7121 57.7386 87.9545C62.5871 86.1667 68.3295 85.2727 74.9659 85.2727C85.0568 85.2727 93.0114 87.3636 98.8295 91.5455C104.678 95.7273 107.754 101.515 108.057 108.909ZM165.307 109.455V128.364H121.67V109.455H165.307ZM199.693 157.091C195.239 157.091 191.299 156.364 187.875 154.909C184.481 153.424 181.814 151.182 179.875 148.182C177.936 145.182 176.966 141.364 176.966 136.727C176.966 132.909 177.617 129.652 178.92 126.955C180.223 124.227 182.042 122 184.375 120.273C186.708 118.545 189.42 117.227 192.511 116.318C195.633 115.409 198.996 114.818 202.602 114.545C206.511 114.242 209.648 113.879 212.011 113.455C214.405 113 216.133 112.379 217.193 111.591C218.254 110.773 218.784 109.697 218.784 108.364V108.182C218.784 106.364 218.087 104.97 216.693 104C215.299 103.03 213.511 102.545 211.33 102.545C208.936 102.545 206.981 103.076 205.466 104.136C203.981 105.167 203.087 106.758 202.784 108.909H179.693C179.996 104.667 181.345 100.758 183.739 97.1818C186.163 93.5758 189.693 90.697 194.33 88.5455C198.966 86.3636 204.754 85.2727 211.693 85.2727C216.693 85.2727 221.178 85.8636 225.148 87.0455C229.117 88.197 232.496 89.8182 235.284 91.9091C238.072 93.9697 240.193 96.3939 241.648 99.1818C243.133 101.939 243.875 104.939 243.875 108.182V156H220.42V146.182H219.875C218.481 148.788 216.784 150.894 214.784 152.5C212.814 154.106 210.557 155.273 208.011 156C205.496 156.727 202.723 157.091 199.693 157.091ZM207.875 141.273C209.784 141.273 211.572 140.879 213.239 140.091C214.936 139.303 216.314 138.167 217.375 136.682C218.436 135.197 218.966 133.394 218.966 131.273V125.455C218.299 125.727 217.587 125.985 216.83 126.227C216.102 126.47 215.314 126.697 214.466 126.909C213.648 127.121 212.769 127.318 211.83 127.5C210.92 127.682 209.966 127.848 208.966 128C207.027 128.303 205.436 128.803 204.193 129.5C202.981 130.167 202.072 131 201.466 132C200.89 132.97 200.602 134.061 200.602 135.273C200.602 137.212 201.284 138.697 202.648 139.727C204.011 140.758 205.754 141.273 207.875 141.273Z" fill="black"/>
<path d="M281 156V62.9091H306.091V98.3636H306.455C307.364 96 308.697 93.8333 310.455 91.8636C312.212 89.8636 314.394 88.2727 317 87.0909C319.606 85.8788 322.636 85.2727 326.091 85.2727C330.697 85.2727 335.076 86.5 339.227 88.9545C343.409 91.4091 346.803 95.2727 349.409 100.545C352.045 105.818 353.364 112.667 353.364 121.091C353.364 129.152 352.106 135.833 349.591 141.136C347.106 146.439 343.773 150.394 339.591 153C335.439 155.606 330.879 156.909 325.909 156.909C322.636 156.909 319.712 156.379 317.136 155.318C314.591 154.227 312.409 152.758 310.591 150.909C308.803 149.03 307.424 146.909 306.455 144.545H305.909V156H281ZM305.545 121.091C305.545 124.485 305.985 127.424 306.864 129.909C307.773 132.364 309.045 134.273 310.682 135.636C312.348 136.97 314.333 137.636 316.636 137.636C318.939 137.636 320.894 136.985 322.5 135.682C324.136 134.348 325.379 132.455 326.227 130C327.106 127.515 327.545 124.545 327.545 121.091C327.545 117.636 327.106 114.682 326.227 112.227C325.379 109.742 324.136 107.848 322.5 106.545C320.894 105.212 318.939 104.545 316.636 104.545C314.333 104.545 312.348 105.212 310.682 106.545C309.045 107.848 307.773 109.742 306.864 112.227C305.985 114.682 305.545 117.636 305.545 121.091ZM363.864 156V86.1818H388.955V156H363.864ZM376.409 78.9091C373.015 78.9091 370.106 77.7879 367.682 75.5455C365.258 73.303 364.045 70.6061 364.045 67.4545C364.045 64.303 365.258 61.6061 367.682 59.3636C370.106 57.1212 373.015 56 376.409 56C379.833 56 382.742 57.1212 385.136 59.3636C387.561 61.6061 388.773 64.303 388.773 67.4545C388.773 70.6061 387.561 73.303 385.136 75.5455C382.742 77.7879 379.833 78.9091 376.409 78.9091ZM435.375 157.273C427.799 157.273 421.314 155.773 415.92 152.773C410.527 149.742 406.39 145.53 403.511 140.136C400.633 134.712 399.193 128.424 399.193 121.273C399.193 114.121 400.633 107.848 403.511 102.455C406.39 97.0303 410.527 92.8182 415.92 89.8182C421.314 86.7879 427.799 85.2727 435.375 85.2727C442.951 85.2727 449.436 86.7879 454.83 89.8182C460.223 92.8182 464.36 97.0303 467.239 102.455C470.117 107.848 471.557 114.121 471.557 121.273C471.557 128.424 470.117 134.712 467.239 140.136C464.36 145.53 460.223 149.742 454.83 152.773C449.436 155.773 442.951 157.273 435.375 157.273ZM435.557 138.727C437.678 138.727 439.511 138.015 441.057 136.591C442.602 135.167 443.799 133.136 444.648 130.5C445.496 127.864 445.92 124.727 445.92 121.091C445.92 117.424 445.496 114.288 444.648 111.682C443.799 109.045 442.602 107.015 441.057 105.591C439.511 104.167 437.678 103.455 435.557 103.455C433.314 103.455 431.39 104.167 429.784 105.591C428.178 107.015 426.951 109.045 426.102 111.682C425.254 114.288 424.83 117.424 424.83 121.091C424.83 124.727 425.254 127.864 426.102 130.5C426.951 133.136 428.178 135.167 429.784 136.591C431.39 138.015 433.314 138.727 435.557 138.727Z" fill="white"/>
</svg>
